<?xml version="1.0" encoding="utf-8"?>
<!-- Generator: Adobe Illustrator 15.1.0, SVG Export Plug-In  -->
<!DOCTYPE svg PUBLIC "-//W3C//DTD SVG 1.1//EN" "http://www.w3.org/Graphics/SVG/1.1/DTD/svg11.dtd" [
	<!ENTITY ns_flows "http://ns.adobe.com/Flows/1.0/">
]>
<svg version="1.1"
	 xmlns="http://www.w3.org/2000/svg" xmlns:xlink="http://www.w3.org/1999/xlink" xmlns:a="http://ns.adobe.com/AdobeSVGViewerExtensions/3.0/"
	 x="0px" y="0px" width="72px" height="72px" viewBox="0 0 72 72" enable-background="new 0 0 72 72" xml:space="preserve">
<defs>
</defs>
<path fill="#EA5833" d="M71.978,69.278c0,1.491-1.207,2.699-2.698,2.699H2.699C1.208,71.978,0,70.769,0,69.278V2.699
	C0,1.208,1.208,0,2.699,0h66.58c1.492,0,2.698,1.208,2.698,2.699V69.278z"/>
<path fill="#FFFFFF" d="M23,61.393c0,1.264,1.027,2.291,2.293,2.291h21.391c1.266,0,2.293-1.027,2.293-2.291V37.517H23V61.393z"/>
<path fill="#EA5833" d="M46.398,56.617c0,1.265-1.026,2.293-2.292,2.293H27.872c-1.266,0-2.292-1.028-2.292-2.293V24.148
	c0-1.265,1.026-2.292,2.292-2.292h16.234c1.266,0,2.292,1.027,2.292,2.292V56.617z"/>
<path fill="#FFFFFF" d="M32.348,14.827c0,3.611-2.93,6.54-6.541,6.54c-3.611,0-6.54-2.929-6.54-6.54c0-3.611,2.929-6.54,6.54-6.54
	C29.418,8.287,32.348,11.215,32.348,14.827"/>
<path fill="#FFFFFF" d="M52.71,14.827c0,3.611-2.928,6.54-6.539,6.54c-3.612,0-6.541-2.929-6.541-6.54
	c0-3.611,2.929-6.54,6.541-6.54C49.782,8.287,52.71,11.215,52.71,14.827"/>
<path fill="#FFFFFF" d="M42.732,13.105c0,3.612-2.928,6.54-6.54,6.54s-6.539-2.928-6.539-6.54c0-3.61,2.927-6.537,6.539-6.537
	S42.732,9.495,42.732,13.105"/>
<path fill="none" stroke="#FFFFFF" stroke-miterlimit="10" d="M40.431,51.699c0-0.976,0.791-1.768,1.767-1.768
	s1.768,0.792,1.768,1.768c0,1.952-1.583,3.533-3.535,3.533c-1.952,0-3.534-1.582-3.534-3.533"/>
<path fill="none" stroke="#FFFFFF" stroke-miterlimit="10" d="M31.548,51.699c0-0.976-0.792-1.768-1.767-1.768
	c-0.977,0-1.768,0.792-1.768,1.768c0,1.952,1.583,3.533,3.535,3.533c1.951,0,3.534-1.582,3.534-3.533"/>
<path fill="#FFFFFF" d="M48.978,37.517H23V17.27c0-1.265,1.027-2.291,2.293-2.291h21.391c1.266,0,2.293,1.026,2.293,2.291V37.517z"
	/>
<line fill="none" stroke="#EA5732" stroke-miterlimit="10" x1="35.963" y1="18.866" x2="35.963" y2="28.54"/>
<line fill="none" stroke="#EA5732" stroke-miterlimit="10" x1="40.217" y1="18.866" x2="40.217" y2="28.54"/>
<line fill="none" stroke="#EA5732" stroke-miterlimit="10" x1="27.559" y1="18.866" x2="27.559" y2="28.54"/>
<line fill="none" stroke="#EA5732" stroke-miterlimit="10" x1="31.762" y1="18.866" x2="31.762" y2="28.54"/>
<line fill="none" stroke="#EA5732" stroke-miterlimit="10" x1="44.419" y1="18.866" x2="44.419" y2="28.54"/>
<line fill="none" stroke="#EA5732" stroke-miterlimit="10" x1="21.59" y1="37.517" x2="51.008" y2="37.517"/>
<line fill="none" stroke="#EA5732" stroke-miterlimit="10" x1="22.327" y1="31.598" x2="49.652" y2="31.598"/>
<path fill="#EA5833" d="M37.518,61.525c0,0.844-0.685,1.528-1.528,1.528c-0.844,0-1.529-0.684-1.529-1.528
	c0-0.844,0.685-1.527,1.529-1.527C36.833,59.998,37.518,60.681,37.518,61.525"/>
</svg>
