<?xml version="1.0" encoding="utf-8"?>
<!-- Generator: Adobe Illustrator 15.1.0, SVG Export Plug-In  -->
<!DOCTYPE svg PUBLIC "-//W3C//DTD SVG 1.1//EN" "http://www.w3.org/Graphics/SVG/1.1/DTD/svg11.dtd" [
	<!ENTITY ns_flows "http://ns.adobe.com/Flows/1.0/">
]>
<svg version="1.1"
	 xmlns="http://www.w3.org/2000/svg" xmlns:xlink="http://www.w3.org/1999/xlink" xmlns:a="http://ns.adobe.com/AdobeSVGViewerExtensions/3.0/"
	 x="0px" y="0px" width="48px" height="48px" viewBox="0 -0.058 48 48" enable-background="new 0 -0.058 48 48"
	 xml:space="preserve">
<defs>
</defs>
<path fill="#EA5833" d="M48.307,46.496c0,1-0.81,1.812-1.811,1.812H1.812c-1,0-1.812-0.811-1.812-1.812V1.812
	C0,0.811,0.811,0,1.812,0h44.685c1.001,0,1.811,0.811,1.811,1.812V46.496z"/>
<path fill="#FFFFFF" d="M15.437,41.203c0,0.849,0.689,1.538,1.539,1.538h14.356c0.85,0,1.539-0.689,1.539-1.538V25.179H15.437
	V41.203z"/>
<path fill="#EA5833" d="M31.14,37.998c0,0.849-0.688,1.539-1.539,1.539H18.706c-0.85,0-1.538-0.69-1.538-1.539V16.207
	c0-0.849,0.688-1.538,1.538-1.538h10.896c0.85,0,1.539,0.689,1.539,1.538V37.998z"/>
<path fill="#FFFFFF" d="M21.71,9.951c0,2.423-1.966,4.389-4.39,4.389c-2.423,0-4.389-1.966-4.389-4.389s1.966-4.389,4.389-4.389
	C19.744,5.562,21.71,7.527,21.71,9.951"/>
<path fill="#FFFFFF" d="M35.376,9.951c0,2.423-1.965,4.389-4.389,4.389c-2.424,0-4.39-1.966-4.39-4.389s1.965-4.389,4.39-4.389
	C33.411,5.562,35.376,7.527,35.376,9.951"/>
<path fill="#FFFFFF" d="M28.679,8.795c0,2.424-1.965,4.389-4.389,4.389s-4.389-1.965-4.389-4.389c0-2.423,1.964-4.387,4.389-4.387
	S28.679,6.373,28.679,8.795"/>
<path fill="none" stroke="#FFFFFF" stroke-miterlimit="10" d="M27.135,34.697c0-0.655,0.531-1.187,1.186-1.187
	s1.187,0.531,1.187,1.187c0,1.31-1.062,2.371-2.373,2.371c-1.31,0-2.372-1.062-2.372-2.371"/>
<path fill="none" stroke="#FFFFFF" stroke-miterlimit="10" d="M21.173,34.697c0-0.655-0.531-1.187-1.186-1.187
	c-0.656,0-1.187,0.531-1.187,1.187c0,1.31,1.062,2.371,2.372,2.371c1.309,0,2.372-1.062,2.372-2.371"/>
<path fill="#FFFFFF" d="M32.871,25.179H15.437V11.591c0-0.85,0.689-1.538,1.539-1.538h14.356c0.85,0,1.539,0.688,1.539,1.538V25.179
	z"/>
<line fill="none" stroke="#EA5732" stroke-miterlimit="10" x1="24.137" y1="12.662" x2="24.137" y2="19.154"/>
<line fill="none" stroke="#EA5732" stroke-miterlimit="10" x1="26.991" y1="12.662" x2="26.991" y2="19.154"/>
<line fill="none" stroke="#EA5732" stroke-miterlimit="10" x1="18.496" y1="12.662" x2="18.496" y2="19.154"/>
<line fill="none" stroke="#EA5732" stroke-miterlimit="10" x1="21.316" y1="12.662" x2="21.316" y2="19.154"/>
<line fill="none" stroke="#EA5732" stroke-miterlimit="10" x1="29.812" y1="12.662" x2="29.812" y2="19.154"/>
<line fill="none" stroke="#EA5732" stroke-miterlimit="10" x1="14.49" y1="25.179" x2="34.234" y2="25.179"/>
<line fill="none" stroke="#EA5732" stroke-miterlimit="10" x1="14.984" y1="21.207" x2="33.324" y2="21.207"/>
<path fill="#EA5833" d="M25.18,41.292c0,0.566-0.459,1.025-1.025,1.025c-0.567,0-1.026-0.459-1.026-1.025s0.459-1.025,1.026-1.025
	C24.72,40.267,25.18,40.726,25.18,41.292"/>
</svg>
