<?xml version="1.0" encoding="utf-8"?>
<!-- Generator: Adobe Illustrator 15.1.0, SVG Export Plug-In  -->
<!DOCTYPE svg PUBLIC "-//W3C//DTD SVG 1.1//EN" "http://www.w3.org/Graphics/SVG/1.1/DTD/svg11.dtd" [
	<!ENTITY ns_flows "http://ns.adobe.com/Flows/1.0/">
]>
<svg version="1.1"
	 xmlns="http://www.w3.org/2000/svg" xmlns:xlink="http://www.w3.org/1999/xlink" xmlns:a="http://ns.adobe.com/AdobeSVGViewerExtensions/3.0/"
	 x="0px" y="0px" width="96px" height="96px" viewBox="0.131 0 96 96" enable-background="new 0.131 0 96 96" xml:space="preserve">
<defs>
</defs>
<path fill="#EA5833" d="M96.064,92.462c0,1.99-1.61,3.603-3.601,3.603H3.603C1.613,96.065,0,94.452,0,92.462V3.603
	C0,1.613,1.613,0,3.603,0h88.861c1.991,0,3.601,1.613,3.601,3.603V92.462z"/>
<path fill="#FFFFFF" d="M30.698,81.938c0,1.688,1.371,3.058,3.061,3.058h28.549c1.69,0,3.061-1.371,3.061-3.058V50.072h-34.67
	V81.938z"/>
<path fill="#EA5833" d="M61.926,75.564c0,1.689-1.37,3.061-3.059,3.061H37.199c-1.689,0-3.06-1.371-3.06-3.061V32.229
	c0-1.687,1.37-3.058,3.06-3.058h21.667c1.689,0,3.059,1.371,3.059,3.058V75.564z"/>
<path fill="#FFFFFF" d="M43.174,19.788c0,4.82-3.911,8.729-8.73,8.729s-8.729-3.909-8.729-8.729c0-4.819,3.91-8.728,8.729-8.728
	S43.174,14.969,43.174,19.788"/>
<path fill="#FFFFFF" d="M70.35,19.788c0,4.82-3.908,8.729-8.728,8.729c-4.821,0-8.73-3.909-8.73-8.729
	c0-4.819,3.909-8.728,8.73-8.728C66.441,11.06,70.35,14.969,70.35,19.788"/>
<path fill="#FFFFFF" d="M57.032,17.491c0,4.821-3.908,8.729-8.729,8.729c-4.821,0-8.727-3.908-8.727-8.729
	c0-4.818,3.906-8.725,8.727-8.725C53.124,8.766,57.032,12.673,57.032,17.491"/>
<path fill="none" stroke="#FFFFFF" stroke-width="2" stroke-miterlimit="10" d="M53.961,69c0-1.303,1.055-2.36,2.358-2.36
	c1.303,0,2.359,1.057,2.359,2.36c0,2.605-2.112,4.716-4.718,4.716c-2.605,0-4.717-2.111-4.717-4.716"/>
<path fill="none" stroke="#FFFFFF" stroke-width="2" stroke-miterlimit="10" d="M42.105,69c0-1.303-1.056-2.36-2.358-2.36
	c-1.304,0-2.359,1.057-2.359,2.36c0,2.605,2.112,4.716,4.718,4.716c2.604,0,4.717-2.111,4.717-4.716"/>
<path fill="#FFFFFF" d="M65.368,50.072h-34.67V23.05c0-1.688,1.371-3.058,3.061-3.058h28.549c1.69,0,3.061,1.37,3.061,3.058V50.072z
	"/>
<line fill="none" stroke="#EA5732" stroke-width="2" stroke-miterlimit="10" x1="47.999" y1="25.18" x2="47.999" y2="38.091"/>
<line fill="none" stroke="#EA5732" stroke-width="2" stroke-miterlimit="10" x1="53.675" y1="25.18" x2="53.675" y2="38.091"/>
<line fill="none" stroke="#EA5732" stroke-width="2" stroke-miterlimit="10" x1="36.782" y1="25.18" x2="36.782" y2="38.091"/>
<line fill="none" stroke="#EA5732" stroke-width="2" stroke-miterlimit="10" x1="42.39" y1="25.18" x2="42.39" y2="38.091"/>
<line fill="none" stroke="#EA5732" stroke-width="2" stroke-miterlimit="10" x1="59.283" y1="25.18" x2="59.283" y2="38.091"/>
<line fill="none" stroke="#EA5732" stroke-width="2" stroke-miterlimit="10" x1="28.815" y1="50.072" x2="68.078" y2="50.072"/>
<line fill="none" stroke="#EA5732" stroke-width="2" stroke-miterlimit="10" x1="29.799" y1="42.172" x2="66.269" y2="42.172"/>
<path fill="#EA5833" d="M50.072,82.114c0,1.127-0.913,2.04-2.039,2.04c-1.127,0-2.041-0.912-2.041-2.04
	c0-1.125,0.913-2.038,2.041-2.038C49.16,80.077,50.072,80.989,50.072,82.114"/>
</svg>
